<?xml version="1.0" encoding="utf-8"?>
<svg t="1642254632141" class="icon" viewBox="0 0 1024 1024" version="1.1" p-id="27078" width="200" height="200" xmlns="http://www.w3.org/2000/svg" xmlns:bx="https://boxy-svg.com">
  <defs>
    <bx:guide x="125.874" y="631.598" angle="0"/>
    <bx:guide x="897.116" y="607.633" angle="0"/>
    <bx:guide x="363.346" y="126.152" angle="90"/>
    <bx:guide x="563.782" y="901.751" angle="90"/>
  </defs>
  <path d="M 1024 0 L 0 0 L 0 1024 L 1024 1024 L 1024 0 Z" p-id="27079" style="fill: rgb(215, 51, 34);"/>
  <title>斗鱼</title>
  <script/>
  <script/>
  <g id="#f2f2f2ff" transform="matrix(1, 0, 0, 1, 1308.295047, 17.148252)"/>
  <script/>
  <title>Wikipedia logo</title>
  <desc>For more information see: http://commons.wikimedia.org/wiki/File:Wikipedia_svg_logo.svg</desc>
  <script/>
  <path d="M 425.584 400.358 C 427.958 397.506 430.572 393.71 433.42 388.961 C 436.269 383.974 438.523 378.987 440.187 374.002 C 442.087 368.777 442.918 363.673 442.681 358.687 C 442.442 353.701 440.424 349.547 436.626 346.221 C 434.014 344.085 431.045 342.898 427.72 342.66 C 424.397 342.422 420.835 342.779 417.036 343.729 C 413.475 344.677 409.794 345.983 405.996 347.646 C 402.196 349.308 398.515 350.97 394.954 352.632 C 400.178 360.705 405.046 369.016 409.558 377.563 C 414.068 385.873 418.936 394.064 424.159 402.138 L 425.584 400.358 Z M 388.899 424.576 C 394.125 424.813 399.585 422.913 405.283 418.877 C 400.059 408.905 395.548 398.812 391.751 388.604 C 388.188 378.396 385.219 368.303 382.845 358.331 C 382.371 368.303 381.658 377.919 380.709 387.179 C 379.997 391.928 379.284 397.27 378.57 403.206 C 377.859 408.905 376.91 414.841 375.722 421.013 C 378.334 420.538 380.352 420.896 381.777 422.082 C 383.439 423.27 385.813 424.102 388.899 424.576 Z M 372.873 273.566 C 376.435 284.962 379.047 296.479 380.709 308.114 C 382.371 319.511 383.202 331.262 383.202 343.372 C 384.151 342.422 385.339 342.185 386.762 342.66 C 391.751 338.386 397.448 334.826 403.859 331.975 C 400.297 328.888 398.515 325.328 398.515 321.291 C 398.042 312.979 398.042 304.433 398.515 295.647 C 398.991 286.862 399.822 278.078 401.009 269.292 C 396.261 270.004 391.512 270.836 386.762 271.785 C 382.252 272.497 377.622 273.09 372.873 273.566 Z M 491.475 435.617 C 492.899 444.165 491.356 450.456 486.843 454.494 C 482.57 458.291 477.108 460.548 470.46 461.259 C 463.811 461.971 456.808 461.377 449.448 459.481 C 442.087 457.342 436.149 454.494 431.639 450.932 C 429.027 449.031 426.414 446.777 423.803 444.165 C 421.429 441.552 419.054 438.703 416.68 435.617 C 415.256 436.564 413.831 437.397 412.406 438.11 C 410.982 438.822 409.439 439.654 407.777 440.603 C 405.164 442.028 402.078 443.333 398.515 444.52 C 394.954 445.471 391.393 446.063 387.832 446.302 C 384.271 446.538 380.828 446.302 377.504 445.588 C 374.416 444.639 372.042 442.859 370.379 440.245 C 367.767 447.132 364.207 452.948 359.696 457.697 C 355.184 462.21 349.367 465.177 342.244 466.603 C 338.683 467.315 335.358 466.721 332.272 464.82 C 329.423 463.16 327.166 461.023 325.504 458.411 C 324.079 455.561 323.606 452.712 324.079 449.862 C 324.792 446.777 327.166 444.283 331.203 442.383 C 336.428 438.585 340.581 433.123 343.67 425.999 C 346.755 418.877 349.129 411.279 350.792 403.206 C 352.69 394.895 354.115 386.705 355.064 378.632 C 356.015 370.321 356.964 363.198 357.915 357.263 C 360.052 342.303 361.239 327.702 361.477 313.456 C 361.713 299.21 362.426 284.606 363.613 269.647 C 362.19 267.749 362.426 266.087 364.325 264.661 C 364.801 263.95 365.631 263.356 366.819 262.881 C 371.567 259.558 377.265 256.826 383.913 254.69 C 390.562 252.315 397.684 250.416 405.283 248.992 C 408.134 238.781 412.406 229.166 418.106 220.142 C 419.292 218.243 420.835 217.768 422.734 218.717 C 424.872 219.431 426.058 220.736 426.297 222.635 C 426.772 226.672 427.009 230.709 427.009 234.746 C 427.009 238.781 427.009 242.817 427.009 246.854 C 440.068 246.381 451.94 248.277 462.626 252.552 C 473.309 256.588 480.553 263.83 484.352 274.279 C 486.25 279.74 486.727 285.438 485.775 291.373 C 485.064 297.072 483.282 302.533 480.432 307.756 C 477.82 312.979 474.378 317.492 470.105 321.291 C 465.831 325.091 461.2 327.702 456.213 329.125 C 451.465 330.314 446.598 330.076 441.611 328.415 C 436.626 326.751 432.113 322.953 428.078 317.017 C 426.414 314.879 426.414 312.742 428.078 310.606 C 429.739 308.23 431.758 307.044 434.132 307.044 C 437.218 307.044 440.306 307.044 443.391 307.044 C 446.478 306.807 449.329 306.333 451.94 305.62 C 454.792 304.67 457.282 303.245 459.42 301.345 C 461.794 299.447 463.694 296.597 465.117 292.798 C 467.017 287.336 467.255 282.944 465.831 279.621 C 464.407 276.059 461.914 273.327 458.352 271.43 C 455.028 269.53 451.111 268.224 446.6 267.512 C 442.325 266.798 438.286 266.443 434.489 266.443 L 426.297 266.443 C 426.058 275.465 425.822 284.488 425.584 293.51 C 425.584 302.533 426.178 311.555 427.365 320.58 C 427.84 322.476 427.484 324.376 426.297 326.276 C 432.468 326.276 437.813 327.465 442.324 329.839 C 446.836 332.45 450.277 335.893 452.652 340.166 C 455.264 344.203 457.044 348.596 457.994 353.345 C 458.944 357.854 459.182 362.605 458.709 367.592 C 458.233 372.578 457.4 377.207 456.213 381.48 C 452.177 395.489 445.529 407.836 436.269 418.522 C 442.442 425.17 449.089 429.562 456.213 431.7 C 463.575 433.835 472.598 433.48 483.282 430.63 C 484.943 430.156 486.606 430.393 488.269 431.342 C 489.931 432.294 490.998 433.717 491.475 435.617 Z M 321.232 376.496 C 322.418 374.832 323.725 372.815 325.149 370.44 C 326.572 368.067 327.523 365.692 327.997 363.317 C 328.473 360.943 328.235 358.805 327.286 356.906 C 326.335 354.77 324.079 353.225 320.518 352.277 C 318.38 351.801 315.532 352.038 311.97 352.989 C 308.646 353.701 305.917 354.412 303.779 355.125 C 299.506 356.312 295.35 357.738 291.314 359.399 C 287.277 360.824 283.24 362.486 279.205 364.386 C 279.679 367.709 279.916 370.915 279.916 374.002 C 280.154 377.089 280.51 380.293 280.986 383.618 C 281.46 386.941 282.172 390.266 283.122 393.589 C 284.072 396.915 285.021 400.238 285.972 403.561 C 285.733 403.561 286.565 403.325 288.465 402.851 C 290.602 402.375 292.62 401.544 294.519 400.358 C 296.656 399.17 298.673 397.983 300.573 396.796 C 308.646 391.572 315.532 384.805 321.232 376.496 Z M 325.504 336.249 C 330.253 336.963 334.052 338.743 336.901 341.591 C 339.751 344.441 341.77 347.766 342.955 351.563 C 344.38 355.125 345.093 359.16 345.093 363.673 C 345.33 367.946 344.974 371.984 344.024 375.783 C 341.886 385.754 337.731 394.895 331.559 403.206 C 325.386 411.516 318.144 418.522 309.834 424.219 C 305.086 427.545 299.623 430.274 293.451 432.41 C 287.277 434.548 281.46 434.904 275.999 433.48 C 274.337 433.48 273.268 433.362 272.794 433.123 C 267.57 431.936 263.533 429.562 260.685 425.999 C 258.072 422.202 256.173 417.928 254.985 413.179 C 254.037 408.192 253.561 403.087 253.561 397.864 C 253.798 392.403 254.155 387.535 254.63 383.26 L 254.63 381.125 C 252.492 382.55 249.525 383.736 245.725 384.687 C 240.501 385.873 235.636 385.16 231.123 382.55 C 226.612 379.938 224.238 375.664 224.001 369.727 C 224.001 365.454 224.832 362.367 226.494 360.469 C 228.155 358.569 230.529 356.431 233.616 354.057 C 238.364 350.731 242.758 347.408 246.794 344.085 C 251.068 340.76 255.224 336.963 259.259 332.688 C 264.959 326.515 269.944 320.103 274.218 313.456 C 278.492 306.807 282.528 300.039 286.327 293.153 C 276.356 293.392 266.857 292.443 257.836 290.305 C 249.05 288.169 241.927 284.845 236.466 280.334 C 235.279 279.621 234.685 278.552 234.685 277.127 C 234.921 275.704 235.872 274.753 237.535 274.279 C 245.844 273.09 254.155 272.617 262.465 272.853 C 271.013 273.09 279.443 272.261 287.75 270.362 C 291.551 269.647 295.35 268.461 299.149 266.798 C 303.186 265.137 307.103 263.593 310.903 262.169 C 314.938 260.507 318.857 259.081 322.655 257.896 C 326.692 256.708 330.728 256.115 334.764 256.115 C 338.089 256.115 340.581 257.657 342.244 260.743 C 343.906 263.593 343.787 266.443 341.886 269.292 C 338.325 274.99 333.341 279.621 326.929 283.182 C 320.518 286.744 313.157 289.356 304.848 291.017 C 303.66 299.566 301.643 308.114 298.793 316.66 C 295.943 324.97 292.62 332.688 288.82 339.812 C 288.345 340.76 287.75 341.712 287.04 342.66 C 286.565 343.608 286.091 344.677 285.614 345.866 C 291.789 342.067 298.437 339.218 305.56 337.318 C 312.682 335.418 319.331 335.063 325.504 336.249 Z M 731.167 415.673 C 732.83 409.973 731.998 405.461 728.675 402.138 C 725.35 398.576 720.956 395.964 715.494 394.302 C 710.034 392.641 704.336 391.69 698.401 391.453 C 692.465 390.978 687.953 390.858 684.865 391.099 C 683.679 391.099 681.304 391.216 677.743 391.453 C 674.182 391.69 670.145 392.048 665.634 392.522 C 661.123 392.758 656.73 393.116 652.456 393.589 C 648.182 393.828 644.976 394.183 642.841 394.658 C 644.026 400.833 644.976 407.125 645.69 413.536 C 646.639 419.708 648.775 425.052 652.099 429.562 C 658.036 431.462 663.734 432.887 669.196 433.835 C 674.893 434.548 680.948 434.668 687.359 434.191 C 690.445 433.954 694.246 433.599 698.756 433.123 C 703.505 432.41 708.017 431.462 712.292 430.274 C 716.801 429.087 720.72 427.306 724.043 424.931 C 727.605 422.558 729.979 419.471 731.167 415.673 Z M 706.592 367.592 C 712.765 368.067 718.938 369.372 725.112 371.509 C 731.285 373.409 736.984 376.138 742.207 379.7 C 747.432 383.26 751.705 387.773 755.03 393.233 C 758.59 398.458 760.727 404.393 761.44 411.042 C 762.153 418.877 760.964 425.882 757.878 432.054 C 754.793 438.228 750.518 443.571 745.058 448.082 C 739.833 452.594 733.778 456.273 726.892 459.123 C 720.244 461.971 713.598 463.871 706.949 464.82 C 701.726 465.771 695.788 466.603 689.139 467.315 C 682.729 468.026 676.2 468.264 669.552 468.026 C 662.904 467.788 656.61 466.839 650.675 465.177 C 644.739 463.513 639.871 460.548 636.074 456.273 C 632.036 456.036 628.355 454.611 625.032 452 C 620.046 447.488 616.961 441.552 615.772 434.191 C 614.823 426.593 614.347 419.708 614.347 413.536 C 614.586 407.125 615.536 400.712 617.197 394.302 C 618.859 387.654 622.301 382.074 627.526 377.563 C 629.661 375.664 632.036 375.307 634.648 376.496 C 637.498 377.68 639.041 379.464 639.278 381.837 C 639.278 382.074 639.278 382.313 639.278 382.55 C 639.516 382.787 639.635 383.024 639.635 383.26 C 643.671 380.176 648.658 377.563 654.594 375.426 C 660.53 373.289 666.584 371.627 672.756 370.44 C 679.168 369.253 685.343 368.422 691.277 367.946 C 697.452 367.473 702.555 367.353 706.592 367.592 Z M 697.332 327.702 C 699.469 325.802 701.011 323.782 701.963 321.647 C 702.911 319.273 702.555 316.779 700.895 314.169 C 699.706 312.269 697.925 310.606 695.552 309.182 C 693.177 307.52 690.445 306.094 687.359 304.907 C 684.511 303.72 681.423 302.651 678.1 301.702 C 674.776 300.753 671.57 299.921 668.482 299.21 C 667.771 304.67 667.058 310.014 666.347 315.236 C 665.871 320.459 665.159 325.683 664.211 330.905 L 682.374 329.482 C 684.985 329.008 687.479 328.651 689.853 328.415 C 692.227 328.176 694.72 327.939 697.332 327.702 Z M 792.782 317.728 C 795.393 318.917 797.411 320.934 798.837 323.782 C 800.499 326.396 800.379 329.008 798.479 331.619 C 792.782 338.98 785.183 344.677 775.687 348.715 C 766.427 352.751 756.334 355.719 745.412 357.618 C 734.73 359.518 723.927 360.824 713.004 361.537 C 702.081 362.012 692.227 362.367 683.442 362.605 C 662.548 363.317 641.416 362.605 620.046 360.469 C 598.916 358.331 578.732 353.225 559.5 345.153 C 558.313 344.914 557.482 344.322 557.008 343.372 C 556.531 342.422 556.293 341.473 556.293 340.524 C 556.293 339.337 556.531 338.386 557.008 337.673 C 557.719 336.724 558.669 336.249 559.857 336.249 C 571.967 335.063 583.955 334.232 595.829 333.756 C 607.938 333.28 620.046 332.805 632.155 332.332 C 632.867 326.157 634.054 320.103 635.718 314.169 C 637.377 307.994 639.158 301.939 641.058 296.004 C 636.31 295.767 631.324 295.41 626.101 294.936 C 620.878 294.46 616.484 293.631 612.922 292.443 L 602.238 293.51 C 599.863 293.747 598.677 292.917 598.677 291.017 C 597.964 290.305 597.489 289.473 597.252 288.523 C 597.252 287.336 597.489 286.388 597.964 285.676 C 600.339 282.827 603.544 280.689 607.581 279.265 C 611.619 277.84 616.009 276.89 620.758 276.414 C 625.744 275.704 630.613 275.347 635.362 275.347 C 640.348 275.11 644.858 274.99 648.896 274.99 C 649.844 271.903 650.914 269.172 652.099 266.798 C 653.287 264.187 654.594 261.695 656.019 259.32 C 643.908 256.233 632.987 251.604 623.252 245.429 C 613.754 239.258 606.75 231.184 602.238 221.211 C 601.289 219.311 601.526 217.411 602.951 215.512 C 604.374 213.614 606.156 213.139 608.292 214.087 C 616.13 216.226 623.607 219.074 630.729 222.635 C 637.854 226.197 645.57 228.809 653.881 230.471 C 663.853 232.371 673.352 232.964 682.374 232.252 C 691.633 231.539 701.011 230.233 710.51 228.335 C 715.494 227.384 719.769 228.215 723.331 230.826 C 727.13 233.439 729.624 236.643 730.81 240.442 C 731.998 244.243 731.878 248.041 730.455 251.84 C 729.03 255.639 725.705 258.252 720.482 259.675 C 713.834 261.575 706.355 262.763 698.046 263.237 C 689.972 263.713 681.662 263.356 673.113 262.169 C 673.113 266.681 672.756 271.072 672.045 275.347 C 679.643 275.82 687.122 277.011 694.483 278.907 C 701.842 280.57 708.848 283.301 715.494 287.099 C 722.857 291.136 728.318 296.241 731.878 302.414 C 735.44 308.35 737.459 314.525 737.933 320.934 L 749.686 318.798 C 757.759 317.372 765.002 316.186 771.413 315.236 C 777.822 314.048 784.945 314.879 792.782 317.728 Z M 460.132 709.737 C 464.407 708.788 467.849 709.501 470.46 711.874 C 473.309 714.011 475.092 716.743 475.803 720.066 C 476.515 723.153 476.16 726.358 474.735 729.682 C 473.309 732.769 470.46 734.787 466.186 735.737 C 461.438 736.923 455.976 738.349 449.804 740.01 C 443.866 741.436 437.694 742.623 431.283 743.572 C 431.758 748.32 432.468 752.833 433.42 757.107 C 434.606 761.381 435.794 765.416 436.98 769.215 L 439.117 772.776 L 441.611 780.614 C 443.985 785.124 444.223 789.278 442.324 793.079 C 440.661 796.64 438.168 799.37 434.843 801.269 C 431.52 803.168 427.958 803.882 424.159 803.405 C 420.361 802.694 417.511 800.201 415.612 795.927 C 412.052 787.617 409.913 779.307 409.2 770.996 C 408.488 762.686 408.371 754.256 408.845 745.709 C 401.485 745.709 394.48 744.759 387.832 742.861 C 381.422 740.724 375.841 737.161 371.093 732.175 C 369.667 730.512 369.431 728.969 370.379 727.546 C 371.567 725.884 373.11 725.289 375.01 725.764 C 380.47 727.188 386.17 727.663 392.105 727.188 C 398.042 726.715 404.096 725.764 410.269 724.34 C 410.507 720.777 410.745 717.335 410.982 714.011 C 411.219 710.687 411.576 707.362 412.052 704.039 C 407.777 704.514 403.502 704.632 399.229 704.395 C 394.954 703.92 390.92 702.614 387.119 700.478 C 382.845 698.103 379.878 694.897 378.216 690.862 C 376.79 686.825 376.316 682.67 376.79 678.397 C 377.504 674.123 379.164 670.085 381.777 666.287 C 384.387 662.487 387.713 659.639 391.751 657.739 C 392.699 657.264 393.649 657.027 394.599 657.027 C 395.784 657.027 396.736 657.503 397.448 658.451 L 398.161 659.164 C 399.348 660.351 399.702 661.656 399.229 663.081 C 398.754 664.505 397.804 665.455 396.38 665.931 C 399.229 664.505 398.397 666.762 393.886 672.696 C 396.736 680.296 401.248 682.67 407.419 679.82 C 410.507 679.82 413.356 679.345 415.969 678.397 C 416.68 674.359 417.392 670.322 418.106 666.287 C 419.054 662.251 420.123 658.213 421.31 654.176 C 421.786 652.278 422.855 651.564 424.517 652.041 C 426.414 652.278 427.484 653.347 427.72 655.245 C 428.434 661.42 428.788 667.948 428.788 674.833 C 434.489 673.173 440.068 671.51 445.529 669.848 C 451.227 668.185 456.927 666.405 462.626 664.505 C 467.137 663.081 470.936 663.556 474.023 665.931 C 477.108 668.306 479.126 671.391 480.078 675.19 C 481.026 678.751 480.671 682.431 479.009 686.231 C 477.584 689.794 474.617 692.048 470.105 692.997 C 463.22 694.423 456.334 695.965 449.448 697.628 C 442.797 699.052 436.032 700.36 429.145 701.545 L 429.145 718.641 C 434.606 716.981 439.949 715.435 445.172 714.011 C 450.398 712.349 455.384 710.925 460.132 709.737 Z M 382.133 648.123 C 380.47 649.073 378.57 649.19 376.435 648.479 C 374.299 647.767 372.516 646.816 371.093 645.63 L 369.312 644.205 C 367.412 642.306 366.461 639.693 366.461 636.37 C 366.461 632.807 367.888 630.315 370.735 628.89 C 375.959 626.278 380.709 623.547 384.982 620.698 C 389.257 617.851 393.41 614.287 397.448 610.015 C 400.771 606.689 403.623 603.247 405.996 599.686 C 408.607 595.886 411.219 592.206 413.831 588.645 C 406.233 588.645 398.636 589.121 391.036 590.069 C 383.676 591.019 376.196 591.256 368.599 590.78 C 365.988 590.544 364.207 589.238 363.256 586.863 C 362.307 584.489 363.138 582.591 365.75 581.166 C 372.636 577.603 380.709 574.636 389.968 572.263 C 399.465 569.649 408.963 568.224 418.462 567.988 C 428.196 567.75 437.574 568.819 446.6 571.194 C 455.621 573.567 463.22 577.959 469.391 584.37 C 474.617 589.832 477.466 596.243 477.94 603.603 C 478.653 610.963 477.584 617.969 474.735 624.615 C 471.885 631.263 467.492 636.964 461.555 641.713 C 455.858 646.223 449.329 648.479 441.966 648.479 C 438.407 648.479 435.438 647.647 433.062 645.984 C 430.926 644.087 429.503 641.829 428.788 639.219 C 428.078 636.607 428.078 633.877 428.788 631.027 C 429.739 628.178 431.52 625.684 434.132 623.547 C 435.083 622.599 436.388 621.649 438.049 620.698 C 439.949 619.512 441.848 618.324 443.749 617.138 C 445.647 615.712 447.429 614.287 449.089 612.864 C 450.752 611.439 451.822 610.015 452.298 608.589 C 453.246 604.79 452.771 601.703 450.871 599.329 C 449.21 596.955 446.835 595.173 443.749 593.986 C 440.897 592.563 437.813 591.612 434.489 591.138 C 431.164 590.425 428.434 589.832 426.297 589.357 L 425.584 589.357 C 424.397 595.055 422.261 600.635 419.174 606.095 C 416.325 611.557 413.237 616.661 409.913 621.412 C 406.113 626.873 402.078 632.095 397.804 637.081 C 393.53 641.829 388.307 645.51 382.133 648.123 Z M 345.806 692.997 C 333.458 697.035 321.706 699.766 310.546 701.189 L 310.546 709.737 C 316.244 709.263 321.824 708.668 327.286 707.957 C 332.983 707.007 338.564 705.462 344.024 703.326 L 345.806 702.614 L 345.806 692.997 Z M 307.341 659.876 C 309.24 666.287 310.189 672.223 310.189 677.683 C 321.112 676.022 331.441 673.29 341.176 669.491 C 337.852 664.031 333.103 660.826 326.929 659.876 C 320.992 658.688 314.463 658.688 307.341 659.876 Z M 290.602 679.465 C 291.789 673.29 293.569 667.71 295.943 662.725 C 290.245 664.151 284.546 665.81 278.847 667.71 C 273.388 669.61 268.401 671.273 263.89 672.696 C 264.127 674.123 264.246 675.548 264.246 676.971 C 264.246 678.397 264.246 679.82 264.246 681.245 C 268.757 680.533 273.151 680.177 277.422 680.177 C 281.697 679.939 286.091 679.702 290.602 679.465 Z M 287.396 709.38 C 287.396 708.194 287.396 707.007 287.396 705.82 C 287.634 704.395 287.75 703.089 287.75 701.903 C 283.479 701.428 279.205 700.833 274.93 700.121 C 270.894 699.409 266.857 698.34 262.822 696.916 C 261.634 702.852 261.04 708.194 261.04 712.942 L 261.04 714.723 C 269.588 712.824 278.253 711.755 287.04 711.517 C 287.04 711.043 287.04 710.687 287.04 710.449 C 287.277 710.212 287.396 709.856 287.396 709.38 Z M 320.518 646.341 C 326.455 646.341 331.914 647.054 336.901 648.479 C 341.886 649.904 346.28 652.278 350.079 655.603 C 356.49 661.538 360.883 669.016 363.256 678.04 C 365.87 686.825 367.174 696.204 367.174 706.177 C 367.412 715.912 366.938 725.646 365.75 735.381 C 364.564 745.115 363.613 753.781 362.902 761.381 C 362.426 764.704 361.239 767.791 359.339 770.64 C 357.677 773.252 355.184 775.033 351.861 775.981 L 349.367 776.696 C 347.229 777.407 345.093 777.525 342.955 777.051 C 341.057 776.575 339.276 775.744 337.615 774.558 C 335.952 773.134 334.528 771.47 333.341 769.572 C 332.39 767.673 332.035 765.653 332.272 763.516 C 332.747 757.107 334.29 750.933 336.901 744.998 C 339.751 739.061 341.886 732.887 343.312 726.477 C 338.564 728.139 333.458 729.563 327.997 730.752 C 322.537 731.7 316.957 732.533 311.258 733.243 C 311.495 736.33 311.851 739.061 312.327 741.436 C 313.04 743.572 313.869 745.472 314.821 747.132 C 316.957 750.933 317.312 754.495 315.888 757.818 C 314.701 761.142 312.563 763.756 309.477 765.653 C 306.628 767.316 303.424 768.027 299.862 767.791 C 296.299 767.316 293.451 765.179 291.314 761.381 C 288.702 757.107 287.04 752.713 286.327 748.201 C 285.614 743.453 285.377 738.586 285.614 733.6 C 281.341 733.363 277.185 733.006 273.151 732.533 C 269.113 731.817 265.076 730.988 261.04 730.039 C 261.278 735.501 261.634 740.961 262.108 746.421 C 262.585 751.643 263.059 756.988 263.533 762.447 C 263.771 765.061 263.177 767.316 261.753 769.215 C 260.328 771.115 258.547 772.539 256.411 773.489 C 254.273 774.439 252.018 774.796 249.643 774.558 C 247.269 774.321 245.25 773.252 243.589 771.352 C 240.264 767.791 237.891 763.992 236.466 759.956 C 235.279 755.918 234.566 751.764 234.329 747.49 C 234.092 742.978 234.21 738.466 234.685 733.956 C 235.398 729.207 235.991 724.694 236.466 720.423 C 237.178 715.912 237.891 711.043 238.602 705.82 C 239.315 700.597 240.264 695.491 241.452 690.506 C 242.876 685.519 244.658 680.771 246.794 676.259 C 248.931 671.749 251.781 667.83 255.342 664.505 C 257.242 662.607 259.259 662.487 261.395 664.151 C 269.23 658.926 278.847 654.652 290.245 651.328 C 289.296 649.904 288.702 648.359 288.465 646.699 C 288.227 644.8 288.583 643.255 289.534 642.067 C 291.67 638.744 294.044 636.488 296.656 635.302 C 299.269 634.113 302.117 632.69 305.203 631.027 C 307.341 629.363 310.189 627.346 313.751 624.973 C 317.551 622.599 319.45 619.867 319.45 616.781 C 319.45 615.355 318.618 614.526 316.957 614.287 C 315.295 613.812 313.395 613.695 311.258 613.933 C 309.121 614.17 306.865 614.526 304.492 615 C 302.354 615.475 300.811 615.832 299.862 616.069 L 286.683 618.918 C 286.446 619.392 286.208 619.867 285.972 620.344 C 285.733 620.818 285.496 621.412 285.26 622.123 C 282.885 626.873 280.273 631.621 277.422 636.37 C 274.574 640.881 271.251 644.918 267.45 648.479 C 263.653 652.041 259.378 654.771 254.63 656.67 C 250.119 658.57 244.895 658.926 238.959 657.739 C 234.685 657.027 231.478 655.245 229.342 652.396 C 227.443 649.31 226.494 645.984 226.494 642.424 C 226.494 638.861 227.443 635.538 229.342 632.451 C 231.242 629.127 233.972 626.873 237.535 625.684 C 243.232 623.547 248.219 620.581 252.492 616.781 C 256.767 612.981 260.565 608.709 263.89 603.96 C 267.45 599.212 270.657 594.343 273.505 589.357 C 276.592 584.134 279.798 579.147 283.122 574.399 C 283.122 574.16 283.24 574.042 283.479 574.042 C 283.479 573.805 283.479 573.686 283.479 573.686 C 283.717 573.686 283.833 573.567 283.833 573.331 C 286.446 570.717 289.057 570.6 291.67 572.974 C 295.231 576.773 296.894 581.403 296.656 586.863 C 296.419 592.325 295.35 597.786 293.451 603.247 C 297.724 601.585 302.117 600.28 306.628 599.329 C 311.376 598.38 315.651 598.143 319.45 598.618 C 323.486 599.092 326.929 600.398 329.777 602.535 C 332.866 604.672 335.001 607.877 336.189 612.151 C 337.376 617.612 336.428 623.547 333.341 629.957 C 330.253 636.37 325.98 641.829 320.518 646.341 Z M 692.702 767.435 C 696.737 764.11 700.419 760.55 703.742 756.75 C 707.066 752.713 709.559 748.44 711.222 743.93 C 713.598 737.281 713.715 732.649 711.577 730.039 C 709.677 727.188 706.592 725.646 702.318 725.408 C 698.282 725.171 693.771 725.646 688.785 726.832 C 684.036 728.021 679.88 729.207 676.32 730.394 C 673.707 731.344 671.214 732.294 668.839 733.243 C 666.465 734.192 663.973 735.143 661.359 736.092 C 666.584 741.791 671.57 747.372 676.32 752.833 C 681.304 758.293 686.766 763.162 692.702 767.435 Z M 784.589 779.189 C 787.44 780.376 788.983 782.037 789.22 784.173 C 790.645 792.722 788.508 799.014 782.81 803.051 C 777.111 806.848 769.988 809.105 761.44 809.817 C 753.13 810.767 744.581 810.528 735.797 809.105 C 727.012 807.917 720.244 806.611 715.494 805.188 C 710.746 804 706.117 802.337 701.605 800.201 C 697.332 797.828 692.939 795.214 688.428 792.365 C 685.816 793.79 683.323 795.214 680.948 796.64 C 678.574 797.828 676.082 799.014 673.47 800.201 C 670.382 801.388 666.227 802.457 661.004 803.405 C 655.781 804.118 650.675 804.238 645.69 803.762 C 640.703 803.288 636.547 801.863 633.223 799.488 C 629.9 797.114 628.593 793.316 629.306 788.091 C 629.781 784.767 631.445 782.63 634.293 781.682 L 636.784 780.968 C 638.21 780.494 639.516 780.85 640.703 782.037 C 642.127 783.224 642.841 784.531 642.841 785.954 C 642.603 787.854 643.433 788.922 645.333 789.16 C 647.233 789.16 649.726 788.685 652.813 787.736 C 655.9 786.785 659.224 785.599 662.784 784.173 C 666.584 782.75 670.028 781.324 673.113 779.898 C 667.89 774.914 663.378 769.453 659.578 763.516 C 655.781 757.582 653.05 751.17 651.387 744.284 C 648.539 749.747 645.216 754.733 641.416 759.243 C 637.854 763.756 633.818 767.673 629.306 770.996 C 625.032 774.081 620.284 776.339 615.061 777.762 C 610.075 779.189 604.732 779.425 599.032 778.475 C 595.709 778.002 593.215 776.457 591.554 773.844 C 590.129 771.233 589.418 768.504 589.418 765.653 C 589.418 762.566 590.129 759.836 591.554 757.462 C 593.215 754.85 595.471 753.188 598.321 752.476 C 604.257 751.289 609.481 749.153 613.992 746.066 C 618.741 742.741 622.778 738.824 626.101 734.313 C 629.661 729.563 632.63 724.34 635.004 718.641 C 637.616 712.942 639.871 707.007 641.772 700.833 C 635.598 699.172 629.9 696.916 624.676 694.065 C 619.453 690.98 614.823 686.942 610.786 681.958 C 609.837 680.771 609.598 679.583 610.075 678.397 C 610.549 676.971 611.619 676.377 613.278 676.613 C 619.215 677.09 625.032 677.683 630.729 678.397 C 636.43 679.107 642.247 679.465 648.182 679.465 C 650.556 670.204 653.407 662.014 656.73 654.89 C 656.73 654.652 656.848 654.416 657.087 654.176 C 657.087 653.939 657.204 653.703 657.442 653.464 C 658.63 651.564 660.291 650.854 662.429 651.328 C 664.803 651.564 666.227 652.871 666.703 655.245 C 667.413 658.333 667.89 661.775 668.128 665.574 C 668.365 669.373 668.482 673.29 668.482 677.328 C 676.793 676.139 684.985 674.717 693.058 673.054 C 701.369 671.391 709.677 669.967 717.988 668.779 C 722.026 668.306 725.231 669.373 727.605 671.985 C 730.218 674.359 731.761 677.208 732.235 680.533 C 732.709 683.858 732.114 687.18 730.455 690.506 C 729.03 693.829 726.418 695.965 722.618 696.916 C 714.308 698.814 705.169 700.597 695.194 702.258 C 685.222 703.684 675.251 704.277 665.278 704.039 C 664.09 709.737 662.665 715.435 661.004 721.135 C 668.601 717.098 676.32 714.129 684.155 712.231 C 692.227 710.094 700.062 709.619 707.659 710.806 C 712.884 711.517 717.158 713.181 720.482 715.791 C 723.807 718.404 726.061 721.491 727.25 725.052 C 728.675 728.615 729.149 732.649 728.675 737.161 C 728.436 741.436 727.366 745.827 725.468 750.339 C 723.569 755.088 721.075 759.598 717.988 763.873 C 715.14 768.147 711.934 772.185 708.372 775.981 C 711.222 777.407 714.308 778.475 717.632 779.189 C 723.331 780.614 729.03 781.206 734.73 780.968 C 740.427 780.494 746.007 779.898 751.467 779.189 C 757.167 778.475 762.747 778.002 768.207 777.762 C 773.667 777.289 779.128 777.762 784.589 779.189 Z M 635.004 598.973 C 635.004 600.635 634.887 602.177 634.648 603.603 C 634.648 605.029 634.768 606.452 635.004 607.877 C 635.241 610.252 635.478 612.506 635.718 614.644 C 635.954 616.781 636.31 619.035 636.784 621.412 C 637.024 621.886 637.262 622.835 637.498 624.261 C 637.735 625.684 637.973 626.515 638.21 626.754 C 639.635 628.178 640.467 629.602 640.703 631.027 C 649.251 629.602 657.442 628.534 665.278 627.822 C 664.09 625.684 663.378 623.547 663.142 621.412 C 662.665 618.798 662.19 615.475 661.717 611.439 C 661.242 607.164 661.479 603.247 662.429 599.686 C 653.168 600.16 644.026 599.803 635.004 598.618 L 635.004 598.973 Z M 708.017 591.495 C 697.094 595.292 686.41 597.666 675.962 598.618 C 676.436 600.041 676.793 601.585 677.03 603.247 C 677.269 604.672 677.625 605.977 678.1 607.164 C 678.574 609.538 679.168 611.912 679.88 614.287 C 680.594 616.424 681.543 618.561 682.729 620.698 C 683.679 621.412 684.155 622.599 684.155 624.261 L 684.155 625.684 C 688.903 625.209 693.533 624.853 698.046 624.615 C 702.794 624.379 707.543 624.141 712.292 623.904 L 712.292 623.547 C 709.917 619.274 708.372 614.17 707.659 608.231 C 707.186 602.298 707.304 596.718 708.017 591.495 Z M 593.335 688.724 C 594.76 692.048 594.76 695.134 593.335 697.985 C 591.909 700.597 589.892 702.614 587.28 704.039 C 584.668 705.462 581.7 706.177 578.377 706.177 C 575.29 705.939 572.561 704.751 570.185 702.614 C 565.912 698.578 563.774 693.829 563.774 688.369 C 563.774 682.67 564.248 677.208 565.199 671.985 C 565.912 666.999 567.453 661.893 569.828 656.67 C 570.303 655.721 570.776 654.89 571.254 654.176 C 571.967 653.228 572.676 652.396 573.391 651.684 C 574.102 650.734 574.934 649.904 575.884 649.19 C 578.019 647.53 580.274 647.53 582.649 649.19 C 588.112 645.867 593.929 643.136 600.1 640.999 C 606.274 638.625 612.686 636.607 619.335 634.944 C 617.435 630.909 616.603 626.515 616.841 621.768 C 617.316 616.781 618.027 612.27 618.978 608.231 C 619.215 606.808 619.571 605.029 620.046 602.891 C 620.521 600.754 621.233 598.618 622.184 596.48 C 614.347 595.055 607.818 593.155 602.594 590.78 C 599.983 589.595 598.795 587.815 599.032 585.44 C 599.51 582.828 600.815 581.282 602.951 580.809 C 603.188 580.572 603.426 580.453 603.664 580.453 C 614.347 578.317 624.913 576.534 635.362 575.111 C 645.808 573.448 656.374 571.311 667.058 568.7 C 672.282 567.514 677.387 566.089 682.374 564.425 C 687.359 562.525 692.345 560.745 697.332 559.085 C 702.318 557.421 707.304 555.879 712.292 554.454 C 717.278 553.028 722.381 551.96 727.605 551.248 C 730.455 551.01 732.947 551.723 735.085 553.386 C 737.459 555.048 739.12 557.185 740.07 559.796 C 741.258 562.17 741.734 564.783 741.495 567.631 C 741.258 570.243 740.07 572.499 737.933 574.399 C 735.085 577.011 731.998 579.266 728.675 581.166 C 725.586 583.065 722.381 584.846 719.057 586.508 C 720.244 587.931 721.195 589.475 721.907 591.138 C 722.857 592.799 723.569 594.343 724.043 595.769 C 725.468 599.092 726.892 602.772 728.318 606.808 C 729.741 610.846 730.336 614.88 730.098 618.918 C 729.86 619.392 729.624 620.105 729.385 621.055 C 729.149 621.768 728.791 622.599 728.318 623.547 C 736.153 623.547 743.87 623.904 751.467 624.615 C 759.304 625.092 766.782 626.161 773.905 627.822 C 781.028 629.484 786.37 632.215 789.933 636.013 C 793.731 639.575 795.986 643.61 796.699 648.123 C 797.411 652.633 796.819 657.264 794.919 662.014 C 793.256 666.762 790.525 671.154 786.728 675.19 C 783.165 678.989 778.772 682.076 773.55 684.452 C 768.562 686.825 763.102 687.893 757.167 687.656 C 754.315 687.656 751.941 687.062 750.044 685.875 C 748.382 684.452 747.075 682.788 746.124 680.888 C 745.412 678.751 745.175 676.613 745.412 674.478 C 745.888 672.103 746.956 669.848 748.618 667.71 C 752.417 663.437 756.098 659.993 759.659 657.382 C 763.459 654.533 765.833 652.278 766.782 650.616 C 767.733 648.954 766.544 647.647 763.221 646.699 C 760.133 645.51 753.604 644.442 743.633 643.493 C 735.085 642.542 726.418 641.95 717.632 641.713 C 709.086 641.475 700.419 641.593 691.633 642.067 C 682.849 642.542 674.062 643.61 665.278 645.273 C 656.73 646.699 648.182 648.359 639.635 650.258 C 631.087 651.922 622.421 653.583 613.635 655.245 C 605.087 656.67 596.54 657.62 587.992 658.097 C 588.229 658.57 588.348 659.401 588.348 660.587 C 588.823 662.251 589.06 663.913 589.06 665.574 C 589.297 666.999 589.535 668.542 589.773 670.204 C 590.248 673.29 590.603 676.496 590.841 679.82 C 591.317 682.907 592.147 685.875 593.335 688.724 Z" fill="white" style=""/>
</svg>