<?xml version="1.0" encoding="utf-8"?>
<svg width="1024pt" height="1024pt" viewBox="0 0 1024 1024" version="1.1" xmlns="http://www.w3.org/2000/svg">
  <g id="#f2f2f2ff">
    <path opacity="1.00" d=" M 0.00 0.00 L 1024.00 0.00 L 1024.00 759.60 C 1022.93 768.75 1022.66 778.02 1020.83 787.09 C 1013.92 828.93 994.49 868.58 965.75 899.74 C 925.27 944.70 865.49 971.49 804.98 971.90 C 792.65 971.97 780.32 971.90 767.99 971.93 C 683.01 971.91 598.03 971.97 513.05 971.91 C 427.72 971.86 342.38 971.93 257.04 971.88 C 235.01 971.46 212.85 972.96 190.97 969.73 C 181.58 968.22 172.26 966.32 163.12 963.67 C 155.81 962.38 149.06 959.21 142.08 956.81 C 134.61 953.30 126.87 950.29 119.66 946.26 C 96.37 934.58 76.00 917.77 58.31 898.75 C 51.50 891.76 46.04 883.67 40.03 876.04 C 34.85 867.82 29.78 859.52 25.25 850.92 C 11.00 822.72 2.36 791.51 1.52 759.86 C 0.31 781.23 1.09 802.65 0.88 824.03 C 0.93 890.69 0.71 957.35 0.96 1024.00 L 0.00 1024.00 L 0.00 0.00 M 247.94 247.09 C 232.30 248.55 217.33 256.59 207.71 269.05 C 200.78 277.81 196.69 288.78 196.02 299.91 C 195.98 358.29 196.01 416.68 196.00 475.06 C 196.10 483.35 195.70 491.65 196.42 499.92 C 197.47 517.18 197.93 534.55 201.56 551.52 C 209.52 593.97 227.17 634.52 252.49 669.48 C 274.99 700.63 303.31 727.48 335.25 748.79 C 405.08 795.79 494.10 812.74 576.41 795.48 C 587.53 792.68 598.74 790.16 609.61 786.48 C 665.74 768.57 716.34 734.28 754.65 689.62 C 794.01 643.93 819.43 586.12 825.05 525.98 C 825.66 514.65 826.42 503.32 827.00 492.00 C 827.00 428.01 826.99 364.02 827.00 300.03 C 826.72 286.99 821.05 274.31 812.06 264.93 C 802.00 254.23 787.67 247.55 772.98 246.99 C 597.97 247.08 422.95 246.87 247.94 247.09 Z" style="fill: rgb(255, 255, 255);"/>
    <path opacity="1.00" d=" M 333.75 417.81 C 345.19 406.90 362.80 403.21 377.68 408.50 C 383.67 410.52 389.19 413.91 393.74 418.29 C 423.67 446.63 453.68 474.91 483.62 503.25 C 493.15 512.03 502.32 521.20 511.99 529.84 C 551.81 492.36 591.46 454.71 631.26 417.21 C 639.06 410.14 649.53 406.18 660.04 406.15 C 672.72 405.97 685.41 411.69 693.51 421.49 C 704.56 434.15 706.66 453.68 698.51 468.39 C 695.55 474.49 690.41 479.05 685.58 483.65 C 640.87 525.88 596.16 568.13 551.42 610.34 C 545.43 615.64 540.22 622.02 533.06 625.85 C 520.12 633.20 503.33 633.07 490.42 625.68 C 485.28 623.01 481.39 618.64 477.12 614.85 C 429.53 569.78 381.79 524.88 334.21 479.80 C 324.38 470.95 319.00 457.31 320.56 444.13 C 321.59 434.15 326.42 424.64 333.75 417.81 Z" style="fill: rgb(255, 255, 255);"/>
  </g>
  <g id="#f03e56ff">
    <path fill="#f03e56" opacity="1.00" d=" M 247.94 247.09 C 422.95 246.87 597.97 247.08 772.98 246.99 C 787.67 247.55 802.00 254.23 812.06 264.93 C 821.05 274.31 826.72 286.99 827.00 300.03 C 826.99 364.02 827.00 428.01 827.00 492.00 C 826.42 503.32 825.66 514.65 825.05 525.98 C 819.43 586.12 794.01 643.93 754.65 689.62 C 716.34 734.28 665.74 768.57 609.61 786.48 C 598.74 790.16 587.53 792.68 576.41 795.48 C 494.10 812.74 405.08 795.79 335.25 748.79 C 303.31 727.48 274.99 700.63 252.49 669.48 C 227.17 634.52 209.52 593.97 201.56 551.52 C 197.93 534.55 197.47 517.18 196.42 499.92 C 195.70 491.65 196.10 483.35 196.00 475.06 C 196.01 416.68 195.98 358.29 196.02 299.91 C 196.69 288.78 200.78 277.81 207.71 269.05 C 217.33 256.59 232.30 248.55 247.94 247.09 M 333.75 417.81 C 326.42 424.64 321.59 434.15 320.56 444.13 C 319.00 457.31 324.38 470.95 334.21 479.80 C 381.79 524.88 429.53 569.78 477.12 614.85 C 481.39 618.64 485.28 623.01 490.42 625.68 C 503.33 633.07 520.12 633.20 533.06 625.85 C 540.22 622.02 545.43 615.64 551.42 610.34 C 596.16 568.13 640.87 525.88 685.58 483.65 C 690.41 479.05 695.55 474.49 698.51 468.39 C 706.66 453.68 704.56 434.15 693.51 421.49 C 685.41 411.69 672.72 405.97 660.04 406.15 C 649.53 406.18 639.06 410.14 631.26 417.21 C 591.46 454.71 551.81 492.36 511.99 529.84 C 502.32 521.20 493.15 512.03 483.62 503.25 C 453.68 474.91 423.67 446.63 393.74 418.29 C 389.19 413.91 383.67 410.52 377.68 408.50 C 362.80 403.21 345.19 406.90 333.75 417.81 Z"/>
    <path fill="#f03e56" opacity="1.00" d=" M 513.05 971.91 C 598.03 971.97 683.01 971.91 767.99 971.93 C 767.99 989.29 767.97 1006.64 767.99 1024.00 L 513.00 1024.00 C 513.03 1006.63 512.93 989.27 513.05 971.91 Z"/>
  </g>
  <g id="#82edb7ff">
    <path fill="#82edb7" opacity="1.00" d=" M 0.88 824.03 C 1.09 802.65 0.31 781.23 1.52 759.86 C 2.36 791.51 11.00 822.72 25.25 850.92 C 29.78 859.52 34.85 867.82 40.03 876.04 C 46.04 883.67 51.50 891.76 58.31 898.75 C 76.00 917.77 96.37 934.58 119.66 946.26 C 126.87 950.29 134.61 953.30 142.08 956.81 C 149.06 959.21 155.81 962.38 163.12 963.67 C 172.26 966.32 181.58 968.22 190.97 969.73 C 212.85 972.96 235.01 971.46 257.04 971.88 C 256.84 989.25 257.05 1006.62 256.94 1024.00 L 0.96 1024.00 C 0.71 957.35 0.93 890.69 0.88 824.03 Z"/>
  </g>
  <g id="#fcb644ff">
    <path fill="#fcb644" opacity="1.00" d=" M 1020.83 787.09 C 1022.66 778.02 1022.93 768.75 1024.00 759.60 L 1024.00 1024.00 L 767.99 1024.00 C 767.97 1006.64 767.99 989.29 767.99 971.93 C 780.32 971.90 792.65 971.97 804.98 971.90 C 865.49 971.49 925.27 944.70 965.75 899.74 C 994.49 868.58 1013.92 828.93 1020.83 787.09 Z"/>
  </g>
  <g id="#4fbcb6ff">
    <path fill="#4fbcb6" opacity="1.00" d=" M 257.04 971.88 C 342.38 971.93 427.72 971.86 513.05 971.91 C 512.93 989.27 513.03 1006.63 513.00 1024.00 L 256.94 1024.00 C 257.05 1006.62 256.84 989.25 257.04 971.88 Z"/>
  </g>
</svg>